<svg xmlns="http://www.w3.org/2000/svg" viewBox="0 0 598.04 447.04"><defs><style>.cls-1{fill:#f90000;}</style></defs><title>Artboard 19</title><g id="Layer_19" data-name="Layer 19"><g id="Layer_17" data-name="Layer 17"><path class="cls-1" d="M574,349.15H354.93v-212L464.47,39.92,574,137.13ZM388.07,308.2H540.86V153.64L464.47,85.83l-76.4,67.81Z"/><path class="cls-1" d="M517.86,219.14C517.75,213,516,202.19,506.19,203c-4.63.33-21,4.84-30.94,4-5.17-.44-17.61-3.41-20.47,0s-3.08,13.76-2,16.84c.88,2.64,7.81,9.36,15.19,11.45,8.48,2.42,23.34-.55,23.34-.55,3.41.11-.11,1.76-.11,1.76-18.61,4.52-31.16-1.1-31.16-1.1S447.29,230,443.88,221a48.75,48.75,0,0,0-8.37-13.54c-14.42-8.26-23.77,4.62-23.77,4.62-1.88,3.53.88,10,.88,10,3.74,9,13.43,25.87,17.5,29.61s19.93,14.09,19.93,14.09l-5.18,141.24,46.68.55s-2.86-136.06-2.09-139,4.07-4.52,4.07-4.52c6.82-6.93,15.19-4.18,20.47-15.41C518.63,238.4,518,226.62,517.86,219.14Z"/><path class="cls-1" d="M425.39,200s6.71,5.18,12.66,3.42c0,0,9.9-2-6.06-41.61,0,0-15.41-10-20.8,8C411.3,169.82,411.74,188,425.39,200Z"/><path class="cls-1" d="M489.24,199.1c13,7.05,23.88-4.29,24.87-5.06.11,0,.11-.11.11-.22,4.52-5.61-.44-17.5-.44-17.5-3.63-8.81-11.66-7-11.66-7C493.64,171.69,484.39,190.63,489.24,199.1Z"/><path class="cls-1" d="M473.71,199.87c5.51-.33,10-8.58,10-8.58a70.62,70.62,0,0,0,10.46-34.35c-5.73-13.54-20.48-5.61-20.48-5.61-7.37,6.82-7.37,33-7.37,33C465.9,191.07,468.21,200.2,473.71,199.87Z"/><path class="cls-1" d="M459.62,195.8c5.62-7,4.85-29.61,4.85-29.61.33-13.65-3.42-17.83-3.42-17.83C446.19,138,439.26,153,439.26,153c-2.09,8.36,4.07,39.08,4.07,39.08C449.16,205.38,459.62,195.8,459.62,195.8Z"/><path class="cls-1" d="M181.66,264.27a6,6,0,0,1-1.1,2.87,5.78,5.78,0,0,1-2.09,1.65,4,4,0,0,1-2.53.11,5.35,5.35,0,0,1-2.54-1.76,5.08,5.08,0,0,1-1.1-2.76,27.63,27.63,0,0,0-.44-3,67.64,67.64,0,0,0-2.2-8.7c-3.19,0-6.27.11-9.47.11s-6.27,0-9.35.11c-.44,1.33-.88,2.65-1.21,4.08s-.66,2.75-1,4.07c-.22,1-.45,2.09-.67,3.19a5.48,5.48,0,0,1-1.43,2.87,4.56,4.56,0,0,1-2.75,1.76,3.64,3.64,0,0,1-2.64-.55,4.93,4.93,0,0,1-1.87-2.1,6.35,6.35,0,0,1-.55-3.3,21.45,21.45,0,0,1,.88-4.62l1.32-4.62a169.65,169.65,0,0,1,8.92-25.54c.33-.66.66-1.44,1-2.1l1-2c.33-.66.66-1.43,1.1-2.31a23.28,23.28,0,0,1,1.21-2.31,6.7,6.7,0,0,1,1.76-1.76,4.23,4.23,0,0,1,2.42-.77,4.63,4.63,0,0,1,3.2,1.21,44.8,44.8,0,0,1,8.58,11.78c2.2,4.4,4.29,8.8,6.06,13.32h3.19a3.79,3.79,0,0,1,2.75,1.43,4.3,4.3,0,0,1,1.21,2.31,6.05,6.05,0,0,1-.22,2.42,5.09,5.09,0,0,1-1.43,2,4.53,4.53,0,0,1-2.31,1.1,45.15,45.15,0,0,1,1.32,5.51l1,5.61v.66ZM166,243.47c-1-2.31-2-4.63-3.08-6.83a47.39,47.39,0,0,0-3.75-6.49c-1,2.2-2,4.51-2.86,6.71s-1.76,4.52-2.53,6.83c2.42,0,4.51-.11,6.27-.11S163.94,243.47,166,243.47Z"/><path class="cls-1" d="M198.5,261.74a9.15,9.15,0,0,1,1.43,2,8.71,8.71,0,0,1,.66,2.43,3.86,3.86,0,0,1-.55,2.2,3.6,3.6,0,0,1-2,1.54,4.89,4.89,0,0,1-2.53.11,13.3,13.3,0,0,1-2.75-.88,11.78,11.78,0,0,1-2.42-1.65,6.76,6.76,0,0,1-1.54-2.1,2.07,2.07,0,0,1-.22-.88c0-.33-.11-.66-.11-.88V221.12a3.77,3.77,0,0,1,1.32-3,5.38,5.38,0,0,1,3-1.43,4.28,4.28,0,0,1,1.65.22,12,12,0,0,1,1.65.88,4.56,4.56,0,0,1,1.21,1.32,3.27,3.27,0,0,1,.55,1.65v35.56c0,2.2,0,3.85-.11,5.06Z"/><path class="cls-1" d="M228.23,244.57v-1.1a4.55,4.55,0,0,0-2.21-2.53,10.42,10.42,0,0,0-3.3-.88,12.8,12.8,0,0,0-1.65.66,4.31,4.31,0,0,0-1.1.88c-.33.33-.55.66-.88,1s-.55.77-.88,1.21v20a4.84,4.84,0,0,1-1.43,3.75,5.44,5.44,0,0,1-3.2,1.54,4.32,4.32,0,0,1-3.19-.88c-1-.66-1.43-1.87-1.54-3.53-.11-4-.11-8.36-.11-13.43V234.55a3.57,3.57,0,0,1,1-2.64,5.11,5.11,0,0,1,2.31-1.43,5.85,5.85,0,0,1,2.76,0,4.12,4.12,0,0,1,2.31,1.76,13.19,13.19,0,0,1,8.58-1.32A15,15,0,0,1,233.4,235a19.91,19.91,0,0,1,3.3-2.75,10.15,10.15,0,0,1,8.7-1.43,13.53,13.53,0,0,1,4.51,1.87,14.78,14.78,0,0,1,3.64,3.19,11.2,11.2,0,0,1,2.31,4.19,13.28,13.28,0,0,1,.33,2.75v20.8a8.55,8.55,0,0,1-.22,1.76,4.72,4.72,0,0,1-5.29,3.31,4.38,4.38,0,0,1-3.85-4.74V243.36a5,5,0,0,0-2-2.64,4.87,4.87,0,0,0-2.64-.77,4.44,4.44,0,0,0-2.65,1,5.68,5.68,0,0,0-2,2.53v20a4.6,4.6,0,0,1-1.32,3.42,6,6,0,0,1-3,1.76,4.5,4.5,0,0,1-3-.33,3.06,3.06,0,0,1-1.65-2.76Z"/><path class="cls-1" d="M289.87,256.24a5.65,5.65,0,0,1,3.31,0,4.53,4.53,0,0,1,2.2,1.43,3,3,0,0,1,.66,2.42,5,5,0,0,1-1.32,3.08,6.94,6.94,0,0,1-2.76,2.2,20.09,20.09,0,0,1-3.3,1.44,38.25,38.25,0,0,1-7.15,1.87,20,20,0,0,1-6.28,0,14.12,14.12,0,0,1-5.5-2.2,20,20,0,0,1-4.85-4.74,17.2,17.2,0,0,1-2.31-4.73,22,22,0,0,1-.77-5.4,28.91,28.91,0,0,1,.44-5.39,20.8,20.8,0,0,1,1.54-4.84,14.24,14.24,0,0,1,4.19-5,24.93,24.93,0,0,1,6.27-3.52,26,26,0,0,1,7.05-1.54,13.25,13.25,0,0,1,6.38,1.1,11.86,11.86,0,0,1,6.28,7.48,10.3,10.3,0,0,1,.11,4.85,8.53,8.53,0,0,1-2.54,4.4,15.78,15.78,0,0,1-4.18,3.08c-1.54.77-3.08,1.44-4.73,2.1s-3.31,1.1-5.07,1.54-3.41.88-5,1.43a7.32,7.32,0,0,0,3.63,2.31,11.34,11.34,0,0,0,4.3.22,22.86,22.86,0,0,0,4.51-1.21,38.89,38.89,0,0,0,4.29-2.09ZM274.46,243a6.53,6.53,0,0,0-2.64,2.53,11.84,11.84,0,0,0-1.21,4.18c1.32-.44,2.86-.88,4.51-1.32s3.19-1,4.74-1.43a31.23,31.23,0,0,0,3.74-1.65c1-.66,1.54-1.32,1.54-2a4.68,4.68,0,0,0-.22-1.21,1.33,1.33,0,0,0-.77-.77,7.49,7.49,0,0,0-4.4-.33,14.22,14.22,0,0,0-3.86,1.32Z"/><path class="cls-1" d="M330.82,264.49a5.36,5.36,0,0,1-4.07,4.74,3.91,3.91,0,0,1-4.84-3,12.49,12.49,0,0,1-.55-4.52c.11-1.54.11-3,.11-4.29v-8.26q0-4.12-.33-8.25a.38.38,0,0,0-.11-.22q0-.16-.33-.33a6.31,6.31,0,0,0-3.75.22,14.2,14.2,0,0,0-3.41,1.76,12.29,12.29,0,0,0-2.42,2.75,6.1,6.1,0,0,0-1.21,3.3V259a22.09,22.09,0,0,0,.11,2.64,24.86,24.86,0,0,1-.11,2.86A7,7,0,0,1,309,267a3.82,3.82,0,0,1-2.2,1.65,2.66,2.66,0,0,1-1.55.22,9.76,9.76,0,0,1-1.54-.33,4,4,0,0,1-2-1.54,9.16,9.16,0,0,1-.88-2.43,9.44,9.44,0,0,1-.22-2.42V236.09a3.83,3.83,0,0,1,1-2.75,4.32,4.32,0,0,1,2.31-1.43,5.14,5.14,0,0,1,2.87.11,4.89,4.89,0,0,1,2.53,2,18.62,18.62,0,0,1,6.71-2.64,16.31,16.31,0,0,1,6.94.22A11.09,11.09,0,0,1,328.4,235a10.9,10.9,0,0,1,2.31,6.94,3.54,3.54,0,0,0,.11.88c0,.55.11,1.21.11,2.09v19.59Z"/><path class="cls-1" d="M44.28,312.82v-1.1a4.59,4.59,0,0,0-2.21-2.53,10.42,10.42,0,0,0-3.3-.88,12.8,12.8,0,0,0-1.65.66,4.31,4.31,0,0,0-1.1.88c-.33.33-.55.66-.88,1s-.55.77-.88,1.21v20a4.81,4.81,0,0,1-1.43,3.74,5.44,5.44,0,0,1-3.2,1.54,4.32,4.32,0,0,1-3.19-.88c-1-.66-1.43-1.87-1.54-3.52-.11-4-.11-8.37-.11-13.43V302.8a3.57,3.57,0,0,1,1-2.64,5.11,5.11,0,0,1,2.31-1.43,5.85,5.85,0,0,1,2.76,0,4.12,4.12,0,0,1,2.31,1.76,13.19,13.19,0,0,1,8.58-1.32,15,15,0,0,1,7.71,4.07,19.91,19.91,0,0,1,3.3-2.75,12,12,0,0,1,3.86-1.65,12.08,12.08,0,0,1,4.84.22A13.53,13.53,0,0,1,66,300.93a14.56,14.56,0,0,1,3.63,3.19,11.24,11.24,0,0,1,2.32,4.19,13.28,13.28,0,0,1,.33,2.75v20.81a8.55,8.55,0,0,1-.22,1.76,4.73,4.73,0,0,1-5.29,3.3,4.38,4.38,0,0,1-3.85-4.73V311.61a5,5,0,0,0-2-2.64,4.87,4.87,0,0,0-2.64-.77,4.42,4.42,0,0,0-2.65,1,5.68,5.68,0,0,0-2,2.53v20a4.56,4.56,0,0,1-1.32,3.41,6,6,0,0,1-3,1.76,4.5,4.5,0,0,1-3-.33,3.05,3.05,0,0,1-1.65-2.75Z"/><path class="cls-1" d="M77,316.45a23.31,23.31,0,0,1,1.54-4.4A29.77,29.77,0,0,1,80.82,308a19.18,19.18,0,0,1,3.09-3.53,14.45,14.45,0,0,1,3.74-2.64,15.33,15.33,0,0,1,7-1.87,14.54,14.54,0,0,1,6.61,1.43,13.83,13.83,0,0,1,5.17,4.3,15.39,15.39,0,0,1,2.87,6.82,41.21,41.21,0,0,1,.44,4.95,18.72,18.72,0,0,1-.55,4.85,21.6,21.6,0,0,1-3.09,7.15,20.63,20.63,0,0,1-5.61,5.95,17.46,17.46,0,0,1-7.16,3.19,11.7,11.7,0,0,1-7.81-1.21,15.92,15.92,0,0,1-3.2-2,14.39,14.39,0,0,1-2.53-2.64,12.56,12.56,0,0,1-2-3.53,39.38,39.38,0,0,1-1.21-3.85,14.15,14.15,0,0,1-.33-4.29c.11-1.43.33-2.87.55-4.3Zm9.25,1.65a18.64,18.64,0,0,0-.33,2.43,8.91,8.91,0,0,0,0,2.42,7.75,7.75,0,0,0,1,3.19,5.61,5.61,0,0,0,1.87,2.31,4.56,4.56,0,0,0,2.75.88,7,7,0,0,0,3.3-1,11.43,11.43,0,0,0,3.86-4.07,13.68,13.68,0,0,0,2-5.73,12,12,0,0,0-.66-5.61,6.11,6.11,0,0,0-4-3.74,7.53,7.53,0,0,0-3.53.77,8.12,8.12,0,0,0-2.75,1.87,18.05,18.05,0,0,0-2.09,2.75A15.79,15.79,0,0,0,86.22,318.1Z"/><path class="cls-1" d="M147,328.67a5.11,5.11,0,0,1,.88,4,4.22,4.22,0,0,1-1.76,2.64,5.08,5.08,0,0,1-3.19.66,6,6,0,0,1-3.63-2,14.23,14.23,0,0,1-3.85,2c-1.33.44-2.76.88-4.19,1.21a13.36,13.36,0,0,1-6.6-.11,15.13,15.13,0,0,1-5.62-2.86,14.65,14.65,0,0,1-4-5,15.66,15.66,0,0,1-1.65-6.38,27.52,27.52,0,0,1,.55-7.38,23.43,23.43,0,0,1,2.53-6.38,16.71,16.71,0,0,1,4.62-5,18.37,18.37,0,0,1,6.83-2.86,21.92,21.92,0,0,1,4.62-.44,32.77,32.77,0,0,1,4.63.33c0-1.1-.11-2.42-.11-3.85V293c0-1.44,0-2.65.11-3.75a18.61,18.61,0,0,1,.33-2.31,3.94,3.94,0,0,1,1.65-2.09,4.8,4.8,0,0,1,2.31-.77,5,5,0,0,1,2.42.66,4.66,4.66,0,0,1,1.87,2c.11.22.22.55.33.77a1.59,1.59,0,0,1,.22.77c0,6.72.11,13.32,0,19.82V327.9C146.65,328.23,146.76,328.45,147,328.67Zm-10.67-4.29a2.4,2.4,0,0,1,.55-.44.6.6,0,0,0,.44-.66V317c0-2.09,0-4.18-.11-6.27a19.5,19.5,0,0,0-7.71-.11,9.59,9.59,0,0,0-3.41,1.54,7.81,7.81,0,0,0-2.53,3.08c-.33,1-.55,2-.88,2.86a13.05,13.05,0,0,0-.44,2.87,11.75,11.75,0,0,0,.33,2.75,6.23,6.23,0,0,0,1.32,2.53,4.78,4.78,0,0,0,.77.66c.33.22.88.55,1.65,1.1a14.53,14.53,0,0,0,5.39-.55A9.9,9.9,0,0,0,136.31,324.38Z"/><path class="cls-1" d="M153.37,329.66a5.21,5.21,0,0,1-.33-2.53,4.07,4.07,0,0,1,.66-2.31,4,4,0,0,1,1.65-1.65,4.76,4.76,0,0,1,2.64-.44,3.58,3.58,0,0,1,1.54.44,4.88,4.88,0,0,1,1.21.88l1.11,1.1a5.77,5.77,0,0,0,1.21,1.1,9.39,9.39,0,0,0,2.75,1.43,13.93,13.93,0,0,0,3.08.66,3,3,0,0,0,1.76-.55,2.19,2.19,0,0,0,.88-1.32,4.19,4.19,0,0,0,.11-1.65,2.8,2.8,0,0,0-.55-1.43,6,6,0,0,0-3.19-1.65,25.53,25.53,0,0,1-8-2.86,10.71,10.71,0,0,1-5.39-7.82,13.57,13.57,0,0,1,.33-4.73,11.69,11.69,0,0,1,2.2-4.19,12.65,12.65,0,0,1,3.63-3.19,9.67,9.67,0,0,1,3.53-1.21,17.25,17.25,0,0,1,7.7.66,27,27,0,0,1,3.53,1.21,5.91,5.91,0,0,1,2.75,2.42,5.5,5.5,0,0,1,.88,3.08,3.66,3.66,0,0,1-1.1,2.76,3.82,3.82,0,0,1-3,1.1,4.94,4.94,0,0,1-2.21-.44,11.73,11.73,0,0,0-2.09-.77,19.4,19.4,0,0,0-3-.77,5,5,0,0,0-2.64.22c-.22,0-.44.22-.66.55a4.46,4.46,0,0,0-.55,1,4.51,4.51,0,0,0-.11,1.21,1.4,1.4,0,0,0,.77,1,15.61,15.61,0,0,0,4,1.54c1.43.33,2.75.77,4.07,1.21a23.31,23.31,0,0,1,3.75,1.76,9.6,9.6,0,0,1,2.86,3.09,13.66,13.66,0,0,1,1.76,6.05,15.49,15.49,0,0,1-1.21,5.94,12.19,12.19,0,0,1-3.85,4.74,11,11,0,0,1-6,2.31,16.11,16.11,0,0,1-4.62-.22,16.61,16.61,0,0,1-4.41-1.65,24.8,24.8,0,0,1-4-2.64,21.9,21.9,0,0,1-3.19-3.2Z"/><path class="cls-1" d="M192.45,309.3a6,6,0,0,1-2.64-1.32,5.42,5.42,0,0,1-1.54-2.09,3.38,3.38,0,0,1,0-2.54,5.37,5.37,0,0,1,1.87-2.42,4.13,4.13,0,0,1,2.75-.88h3c0-.33,0-1.1-.11-2.31s-.11-2.53,0-4,.11-2.76.22-4.08a5,5,0,0,1,.88-2.75,4.09,4.09,0,0,1,3.74-2,4.69,4.69,0,0,1,3.75,2.2,2.4,2.4,0,0,1,.55.88,1.63,1.63,0,0,1,.22,1c0,1.87.11,3.64,0,5.51v5.5h6a3.84,3.84,0,0,1,2.42.88A6.33,6.33,0,0,1,215,303a4.91,4.91,0,0,1,.22,2.54,3.15,3.15,0,0,1-1.21,2.09,7,7,0,0,1-4.08,1.54c-1.54,0-3.19.11-4.84.11v16.95c0,1.21.11,2.53.22,3.74a13,13,0,0,1-.22,3.64,4.21,4.21,0,0,1-3.41,3.19,6.13,6.13,0,0,1-2.43-.11A7.79,7.79,0,0,1,197,335.5a3.3,3.3,0,0,1-.77-1.87,11.11,11.11,0,0,1-.33-2.76V309.41Z"/><path class="cls-1" d="M253.22,331.42a4.44,4.44,0,0,1-.23,3.64,4.06,4.06,0,0,1-2.31,2,4.9,4.9,0,0,1-3.3-.11,6.46,6.46,0,0,1-3.08-2.42,14.53,14.53,0,0,1-4.18,2.31,18.55,18.55,0,0,1-4.63.77,19.3,19.3,0,0,1-6.93-.88,13.47,13.47,0,0,1-5.18-3.08,12.3,12.3,0,0,1-3.08-5.18,18.45,18.45,0,0,1-.66-7.15c.11-1.1.33-2.2.55-3.31s.55-2.09,1-3.19a26.92,26.92,0,0,1,1.76-3.63,21.39,21.39,0,0,1,2.31-3.3,22.27,22.27,0,0,1,10.35-7.27,22.81,22.81,0,0,1,2.86-.66,14.06,14.06,0,0,1,3.75-.22,13.83,13.83,0,0,1,3.63.55,4.66,4.66,0,0,1,2.53,1.65,9.31,9.31,0,0,1,1,1.65,3.39,3.39,0,0,1,.33,1.43v13.88a17,17,0,0,0,.11,2.31,15,15,0,0,0,.22,2.31,17.26,17.26,0,0,0,.33,1.76ZM237,328c.55-.33,1.21-.77,1.87-1.21a8.25,8.25,0,0,0,1.88-1.54,51,51,0,0,1-.78-8.15c-.11-2.75-.11-5.39,0-8.14a12.91,12.91,0,0,0-6.16,3,12.29,12.29,0,0,0-3.85,5.61,24,24,0,0,0-.77,2.65,7.17,7.17,0,0,0-.22,2.64,5.24,5.24,0,0,0,2.86,4.73,5.11,5.11,0,0,0,2.53.66A6.78,6.78,0,0,0,237,328Z"/><path class="cls-1" d="M289.21,332.75a5.35,5.35,0,0,1-1.43,3.19,5.42,5.42,0,0,1-2.64,1.54,3.91,3.91,0,0,1-4.84-3,12.46,12.46,0,0,1-.55-4.52c.11-1.54.11-3,.11-4.29v-8.26q0-4.12-.33-8.25a.38.38,0,0,0-.11-.22c0-.11-.11-.22-.34-.33a6.28,6.28,0,0,0-3.74.22,14.2,14.2,0,0,0-3.41,1.76,12.29,12.29,0,0,0-2.42,2.75,6.1,6.1,0,0,0-1.21,3.3v10.57a22.09,22.09,0,0,0,.11,2.64,25,25,0,0,1-.11,2.87,6.94,6.94,0,0,1-.88,2.53,3.81,3.81,0,0,1-2.21,1.65,2.64,2.64,0,0,1-1.54.22,9.76,9.76,0,0,1-1.54-.33,4,4,0,0,1-2-1.54,9.09,9.09,0,0,1-.88-2.42,9.51,9.51,0,0,1-.22-2.43V304.34a3.83,3.83,0,0,1,1-2.75,4.32,4.32,0,0,1,2.31-1.43,5.1,5.1,0,0,1,2.86.11,4.87,4.87,0,0,1,2.54,2,18.62,18.62,0,0,1,6.71-2.64,16.31,16.31,0,0,1,6.94.22,11.09,11.09,0,0,1,5.39,3.41,10.92,10.92,0,0,1,2.31,6.94,3.54,3.54,0,0,0,.11.88c0,.55.11,1.21.11,2.09v19.6Z"/><path class="cls-1" d="M328.84,328.67a5.11,5.11,0,0,1,.88,4,4.22,4.22,0,0,1-1.76,2.64,5.08,5.08,0,0,1-3.19.66,6,6,0,0,1-3.63-2,14.14,14.14,0,0,1-3.86,2c-1.32.44-2.75.88-4.18,1.21a13.36,13.36,0,0,1-6.6-.11,15.05,15.05,0,0,1-5.62-2.86,14.65,14.65,0,0,1-4-5,15.66,15.66,0,0,1-1.65-6.38,27.52,27.52,0,0,1,.55-7.38,23.43,23.43,0,0,1,2.53-6.38,16.71,16.71,0,0,1,4.62-5,18.3,18.3,0,0,1,6.83-2.86,21.92,21.92,0,0,1,4.62-.44,32.87,32.87,0,0,1,4.63.33c0-1.1-.11-2.42-.11-3.85V293c0-1.44,0-2.65.11-3.75a18.61,18.61,0,0,1,.33-2.31,3.94,3.94,0,0,1,1.65-2.09,4.8,4.8,0,0,1,2.31-.77,5,5,0,0,1,2.42.66,4.66,4.66,0,0,1,1.87,2c.11.22.22.55.33.77a1.59,1.59,0,0,1,.22.77c0,6.72.11,13.32,0,19.82V327.9A3.51,3.51,0,0,1,328.84,328.67Zm-10.57-4.29a2.27,2.27,0,0,1,.56-.44.6.6,0,0,0,.44-.66V317c0-2.09,0-4.18-.11-6.27a19.5,19.5,0,0,0-7.71-.11,9.59,9.59,0,0,0-3.41,1.54,7.81,7.81,0,0,0-2.53,3.08c-.34,1-.56,2-.89,2.86a13.05,13.05,0,0,0-.44,2.87,11.75,11.75,0,0,0,.33,2.75,6.14,6.14,0,0,0,1.33,2.53,4.78,4.78,0,0,0,.77.66c.33.22.88.55,1.65,1.1a14.53,14.53,0,0,0,5.39-.55A9.82,9.82,0,0,0,318.27,324.38Z"/></g></g></svg>